<?xml version="1.0" encoding="UTF-8"?>
<svg width="112px" height="30px" viewBox="0 0 112 30" version="1.1" xmlns="http://www.w3.org/2000/svg" xmlns:xlink="http://www.w3.org/1999/xlink">
    <title>SURVV</title>
    <g id="authentication" stroke="none" stroke-width="1" fill="none" fill-rule="evenodd">
        <g id="landing" transform="translate(-132.000000, -86.000000)" fill="#EB3649" fill-rule="nonzero">
            <path d="M141.243301,116 C143.083959,116 144.717875,115.671141 146.145052,115.013423 C147.572228,114.355705 148.699297,113.375839 149.526259,112.073826 C150.353221,110.771812 150.766702,109.167785 150.766702,107.261745 C150.766702,105.758389 150.539955,104.489933 150.086459,103.456376 C149.632964,102.422819 149.019412,101.557047 148.245802,100.85906 C147.472192,100.161074 146.625223,99.5637584 145.704895,99.0671141 C144.784566,98.5704698 143.870906,98.1342282 142.963916,97.7583893 C142.056925,97.3825503 141.223294,97.0067114 140.463023,96.6308725 C139.702751,96.2550336 139.089199,95.8255034 138.622365,95.3422819 C138.155532,94.8590604 137.922115,94.2684564 137.922115,93.5704698 C137.922115,92.8993289 138.09551,92.3422819 138.442301,91.8993289 C138.789091,91.4563758 139.309277,91.1073826 140.002858,90.852349 C140.696439,90.5973154 141.510063,90.4697987 142.44373,90.4697987 C143.56413,90.4697987 144.451113,90.5973154 145.10468,90.852349 C145.758247,91.1073826 146.291771,91.3624161 146.705252,91.6174497 C147.118733,91.8724832 147.538883,92 147.965702,92 C148.445874,92 148.839347,91.8322148 149.146124,91.4966443 C149.4529,91.1610738 149.679647,90.7785235 149.826367,90.3489933 C149.973086,89.9194631 150.046445,89.5436242 150.046445,89.2214765 C150.046445,88.5771812 149.773014,88.0469799 149.226152,87.6308725 C148.67929,87.2147651 147.985709,86.885906 147.145409,86.6442953 C146.305109,86.4026846 145.464809,86.2348993 144.624509,86.1409396 C143.784209,86.0469799 143.057282,86 142.44373,86 C141.296654,86 140.149577,86.1409396 139.002501,86.4228188 C137.855425,86.704698 136.808384,87.1610738 135.861379,87.7919463 C134.914374,88.4228188 134.154103,89.2483221 133.580564,90.2684564 C133.007026,91.2885906 132.720257,92.5503356 132.720257,94.0536913 C132.720257,95.4228188 132.953674,96.5771812 133.420507,97.5167785 C133.887341,98.4563758 134.500893,99.2483221 135.261165,99.8926174 C136.021436,100.536913 136.861736,101.087248 137.782065,101.543624 C138.702394,102 139.616053,102.42953 140.523044,102.832215 C141.430035,103.234899 142.270335,103.651007 143.043944,104.080537 C143.817554,104.510067 144.431106,105.020134 144.884602,105.610738 C145.338097,106.201342 145.564845,106.926174 145.564845,107.785235 C145.564845,108.590604 145.358104,109.248322 144.944623,109.758389 C144.531142,110.268456 143.98428,110.651007 143.304037,110.90604 C142.623794,111.161074 141.88353,111.288591 141.083244,111.288591 C140.069549,111.288591 139.21591,111.134228 138.522329,110.825503 C137.828748,110.516779 137.241872,110.154362 136.761701,109.738255 C136.281529,109.322148 135.85471,108.959732 135.481243,108.651007 C135.107777,108.342282 134.707634,108.187919 134.280815,108.187919 C133.853995,108.187919 133.467191,108.342282 133.1204,108.651007 C132.77361,108.959732 132.500179,109.33557 132.300107,109.778523 C132.100036,110.221477 132,110.630872 132,111.006711 C132,111.785235 132.406812,112.557047 133.220436,113.322148 C134.03406,114.087248 135.141122,114.724832 136.541622,115.234899 C137.942122,115.744966 139.509349,116 141.243301,116 Z M163.811361,115.879195 C165.598666,115.879195 167.219245,115.577181 168.673098,114.973154 C170.12695,114.369128 171.280695,113.389262 172.134334,112.033557 C172.987972,110.677852 173.414791,108.885906 173.414791,106.657718 L173.414791,106.657718 L173.414791,87.8120805 C173.414791,87.2483221 173.14136,86.8389262 172.594498,86.5838926 C172.047636,86.3288591 171.454091,86.2013423 170.813862,86.2013423 C170.120281,86.2013423 169.513398,86.3288591 168.993212,86.5838926 C168.473026,86.8389262 168.212933,87.2483221 168.212933,87.8120805 L168.212933,87.8120805 L168.212933,106.657718 C168.212933,108.214765 167.819459,109.375839 167.032512,110.14094 C166.245564,110.90604 165.171847,111.288591 163.811361,111.288591 C162.424199,111.288591 161.343813,110.90604 160.570204,110.14094 C159.796594,109.375839 159.409789,108.214765 159.409789,106.657718 L159.409789,106.657718 L159.409789,87.8120805 C159.409789,87.2483221 159.136358,86.8389262 158.589496,86.5838926 C158.042634,86.3288591 157.449089,86.2013423 156.80886,86.2013423 C156.141955,86.2013423 155.541741,86.3288591 155.008217,86.5838926 C154.474693,86.8389262 154.207931,87.2483221 154.207931,87.8120805 L154.207931,87.8120805 L154.207931,106.657718 C154.207931,108.885906 154.634751,110.677852 155.488389,112.033557 C156.342027,113.389262 157.489103,114.369128 158.929618,114.973154 C160.370132,115.577181 161.99738,115.879195 163.811361,115.879195 Z M194.142194,115.838926 C194.675718,115.838926 195.189234,115.704698 195.682744,115.436242 C196.176253,115.167785 196.583065,114.818792 196.90318,114.389262 C197.223294,113.959732 197.383351,113.530201 197.383351,113.100671 C197.383351,113.020134 197.370013,112.919463 197.343337,112.798658 C197.316661,112.677852 197.276646,112.563758 197.223294,112.456376 L197.223294,112.456376 L191.941408,102.671141 C192.955103,102.348993 193.855425,101.85906 194.642372,101.201342 C195.42932,100.543624 196.049542,99.6711409 196.503037,98.5838926 C196.956532,97.4966443 197.18328,96.1744966 197.18328,94.6174497 C197.18328,92.4697987 196.756461,90.7852349 195.902822,89.5637584 C195.049184,88.3422819 193.908777,87.4765101 192.481601,86.966443 C191.054424,86.4563758 189.460522,86.2013423 187.699893,86.2013423 L187.699893,86.2013423 L179.777063,86.2013423 C179.270216,86.2013423 178.863404,86.3624161 178.556627,86.6845638 C178.249851,87.0067114 178.096463,87.3825503 178.096463,87.8120805 L178.096463,87.8120805 L178.096463,113.986577 C178.096463,114.52349 178.369894,114.932886 178.916756,115.214765 C179.463618,115.496644 180.057163,115.637584 180.697392,115.637584 C181.364297,115.637584 181.964511,115.496644 182.498035,115.214765 C183.031559,114.932886 183.298321,114.52349 183.298321,113.986577 L183.298321,113.986577 L183.298321,103.47651 L186.659521,103.47651 L192.341551,114.590604 C192.528284,114.993289 192.788377,115.302013 193.121829,115.516779 C193.455282,115.731544 193.795403,115.838926 194.142194,115.838926 Z M187.699893,99.3691275 L183.298321,99.3691275 L183.298321,90.7919463 L187.699893,90.7919463 C189.007026,90.7919463 190.047398,91.1073826 190.821008,91.738255 C191.594617,92.3691275 191.981422,93.4899329 191.981422,95.1006711 C191.981422,96.6577181 191.594617,97.7583893 190.821008,98.4026846 C190.047398,99.0469799 189.007026,99.3691275 187.699893,99.3691275 L187.699893,99.3691275 Z M209.907824,115.879195 C210.681434,115.879195 211.395022,115.731544 212.048589,115.436242 C212.702156,115.14094 213.108967,114.697987 213.269025,114.107383 L213.269025,114.107383 L220.991783,88.7785235 C220.991783,88.6979866 220.998452,88.6241611 221.01179,88.557047 C221.025128,88.4899329 221.031797,88.4295302 221.031797,88.3758389 C221.031797,87.9463087 220.858402,87.5704698 220.511611,87.2483221 C220.164821,86.9261745 219.738002,86.6711409 219.231154,86.4832215 C218.724306,86.295302 218.230797,86.2013423 217.750625,86.2013423 C217.323806,86.2013423 216.957008,86.2751678 216.650232,86.4228188 C216.343456,86.5704698 216.123377,86.8456376 215.989996,87.2483221 L215.989996,87.2483221 L209.907824,109.073826 L203.785638,87.2483221 C203.705609,86.8456376 203.505538,86.5704698 203.185423,86.4228188 C202.865309,86.2751678 202.491842,86.2013423 202.065023,86.2013423 C201.584852,86.2013423 201.084673,86.295302 200.564487,86.4832215 C200.044302,86.6711409 199.610813,86.9261745 199.264023,87.2483221 C198.917232,87.5704698 198.743837,87.9463087 198.743837,88.3758389 C198.743837,88.4563758 198.770513,88.590604 198.823866,88.7785235 L198.823866,88.7785235 L206.586638,114.107383 C206.746695,114.697987 207.153507,115.14094 207.807074,115.436242 C208.460641,115.731544 209.160891,115.879195 209.907824,115.879195 Z M232.876027,115.879195 C233.649637,115.879195 234.363225,115.731544 235.016792,115.436242 C235.670358,115.14094 236.07717,114.697987 236.237228,114.107383 L236.237228,114.107383 L243.959986,88.7785235 C243.959986,88.6979866 243.966655,88.6241611 243.979993,88.557047 C243.993331,88.4899329 244,88.4295302 244,88.3758389 C244,87.9463087 243.826605,87.5704698 243.479814,87.2483221 C243.133024,86.9261745 242.706205,86.6711409 242.199357,86.4832215 C241.692509,86.295302 241.199,86.2013423 240.718828,86.2013423 C240.292009,86.2013423 239.925211,86.2751678 239.618435,86.4228188 C239.311659,86.5704698 239.09158,86.8456376 238.958199,87.2483221 L238.958199,87.2483221 L232.876027,109.073826 L226.753841,87.2483221 C226.673812,86.8456376 226.473741,86.5704698 226.153626,86.4228188 C225.833512,86.2751678 225.460045,86.2013423 225.033226,86.2013423 C224.553055,86.2013423 224.052876,86.295302 223.53269,86.4832215 C223.012504,86.6711409 222.579016,86.9261745 222.232226,87.2483221 C221.885435,87.5704698 221.71204,87.9463087 221.71204,88.3758389 C221.71204,88.4563758 221.738716,88.590604 221.792069,88.7785235 L221.792069,88.7785235 L229.554841,114.107383 C229.714898,114.697987 230.12171,115.14094 230.775277,115.436242 C231.428844,115.731544 232.129094,115.879195 232.876027,115.879195 Z" id="SURVV"></path>
        </g>
    </g>
</svg>